<svg version="1.1" id="Layer_1" xmlns="http://www.w3.org/2000/svg" xmlns:xlink="http://www.w3.org/1999/xlink" x="0px" y="0px" width="100%" viewBox="0 0 690 367" enable-background="new 0 0 690 367" xml:space="preserve">

<path fill="#FCDE02" opacity="1.000000" stroke="none" d="
M163.656265,278.850647 
	C133.255035,286.001251 102.853798,293.151855 71.614594,300.499512 
	C73.953735,292.876862 75.949638,286.372711 78.234344,279.242737 
	C79.349625,275.127838 80.176117,271.638794 81.329727,267.932800 
	C84.264427,258.818115 86.888947,249.925323 89.474831,241.021286 
	C92.106773,231.958588 94.700684,222.884857 97.446350,213.501373 
	C102.240295,198.417099 106.899155,183.647415 111.730713,168.584076 
	C112.950615,164.638580 114.038879,160.997940 115.036865,157.332687 
	C117.421104,148.576172 119.762794,139.808044 122.433090,130.829224 
	C123.104553,129.206726 123.427170,127.788780 123.830429,126.394150 
	C127.914185,112.270790 132.011093,98.151230 136.432861,83.878876 
	C137.784500,80.152565 138.807602,76.577995 139.830704,73.003433 
	C142.992020,62.409286 146.153351,51.815144 149.533325,40.488213 
	C156.671280,48.149857 163.453827,55.430035 170.651230,63.179832 
	C173.660980,66.101028 176.255890,68.552597 179.003784,71.311119 
	C183.360733,75.820786 187.564713,80.023514 191.819809,84.210472 
	C191.870926,84.194710 191.769867,84.159599 191.708694,84.520653 
	C192.173401,85.378380 192.699280,85.875046 193.443192,86.591087 
	C197.199081,90.910942 200.578537,95.162277 204.308792,99.079552 
	C211.411407,106.538277 218.714386,113.806198 225.934158,121.153336 
	C225.934158,121.153343 225.943604,121.033340 225.730591,121.293602 
	C225.977463,121.914482 226.437363,122.275101 226.897278,122.635712 
	C232.896576,128.897980 238.895859,135.160233 245.122498,142.055267 
	C245.883881,142.866867 246.417908,143.045700 246.951920,143.224518 
	C246.951920,143.224518 247.004807,143.089981 246.841721,143.435547 
	C247.105728,143.897766 247.532806,144.014450 247.959900,144.131119 
	C247.959900,144.131119 247.831345,144.053940 247.752289,144.465179 
	C258.055725,155.567841 268.438232,166.259293 278.952606,177.237396 
	C279.727661,178.022263 280.370789,178.520462 281.014038,179.002319 
	C281.014130,178.985977 280.981476,178.987259 281.087952,179.314850 
	C283.791626,182.794708 286.388885,185.946976 288.589050,189.190552 
	C282.458832,188.131775 276.725647,186.981689 270.853516,185.536179 
	C265.885895,180.418594 261.057281,175.596436 256.180237,170.791397 
	C256.131805,170.808517 256.228333,170.843613 256.291687,170.482269 
	C255.829041,169.622498 255.303055,169.124039 254.546173,168.417877 
	C249.697372,162.817993 245.265411,157.251297 240.411560,152.080627 
	C235.099258,146.421570 229.397186,141.128433 223.718643,135.394501 
	C216.107574,127.425613 208.642838,119.738022 201.023224,111.729950 
	C191.580368,101.556511 182.292389,91.703552 172.986313,81.507935 
	C170.361725,78.442146 167.755234,75.718994 164.996689,72.689789 
	C161.501755,68.989944 158.158890,65.596146 154.445724,61.826405 
	C152.824219,67.995872 151.395676,73.431145 149.628418,79.024910 
	C146.876129,87.429749 144.402542,95.659195 142.074814,103.929710 
	C140.943588,107.949013 140.085205,112.045105 139.071869,116.067139 
	C139.040436,116.027840 139.133667,116.065750 138.775497,116.180634 
	C138.184631,117.265022 137.951935,118.234528 137.570068,119.510651 
	C132.608063,135.604218 127.795212,151.391159 122.901367,167.545837 
	C121.547806,172.240707 120.275238,176.567856 118.723175,181.146149 
	C117.692345,183.746719 116.861794,186.074188 116.202934,188.449295 
	C112.736679,200.944855 109.313812,213.452454 105.568909,226.163025 
	C101.071022,240.286240 96.880096,254.202332 92.467361,268.383301 
	C91.218834,272.098572 90.192116,275.548981 89.099449,279.393555 
	C88.705299,281.328979 88.377090,282.870209 87.690224,286.095764 
	C94.119278,283.865448 99.562973,281.976990 105.445145,280.046265 
	C117.492149,277.845032 129.141754,275.881195 140.693222,273.450958 
	C147.213852,272.079102 153.572983,269.939636 160.416565,268.084778 
	C186.508224,262.225708 212.202682,256.490906 237.861771,250.602081 
	C249.940674,247.829941 261.951630,244.761765 274.338684,241.931381 
	C276.354370,244.997818 278.024689,247.960617 279.354370,251.178772 
	C261.340057,255.667267 243.666336,259.900421 225.581070,264.061279 
	C218.790024,265.487488 212.410507,266.985931 205.625671,268.596954 
	C191.365646,272.089905 177.510956,275.470276 163.656265,278.850647 
z" data-index="1" style="opacity: 1;"></path>
<path fill="#FFFFFE" opacity="1.000000" stroke="none" d="
M335.834625,200.001297 
	C335.834625,195.536316 335.834625,191.071350 335.834625,186.020981 
	C342.328247,186.020981 348.278992,185.818741 354.197998,186.162735 
	C355.682800,186.249039 357.240875,187.915085 358.469055,189.149780 
	C375.616638,206.388458 392.712708,223.678345 410.810059,241.954239 
	C410.810059,222.536453 410.810059,204.535782 410.810059,186.270538 
	C416.291748,186.270538 421.227936,186.270538 426.584625,186.270538 
	C426.584625,210.568237 426.584625,234.954041 426.584625,259.985413 
	C420.673706,259.985413 414.568329,260.152588 408.485809,259.854218 
	C407.158112,259.789093 405.785614,258.190430 404.647247,257.079315 
	C387.860657,240.695389 371.110687,224.274002 354.349091,207.864471 
	C353.812744,207.339371 353.245453,206.845810 352.093964,205.787231 
	C352.093964,224.194885 352.093964,241.770706 352.093964,259.672363 
	C346.695282,259.672363 341.635803,259.672363 335.786346,259.672363 
	C335.786346,242.907349 335.786346,226.143631 335.570435,208.788544 
	C335.514526,205.465210 335.674561,202.733261 335.834625,200.001297 
z" data-index="2" style="opacity: 1;"></path>
<path fill="#FFFFFF" opacity="1.000000" stroke="none" d="
M493.999603,209.080933 
	C493.999603,206.611923 493.999603,204.632935 493.999603,202.162750 
	C483.031006,202.162750 472.300537,202.162750 461.289368,202.162750 
	C461.289368,196.616562 461.289368,191.559677 461.289368,186.249207 
	C488.665558,186.249207 515.923096,186.249207 543.590820,186.249207 
	C543.590820,191.233032 543.590820,196.280563 543.590820,201.873535 
	C532.270508,201.873535 520.878540,201.873535 509.187195,201.873535 
	C509.187195,221.342712 509.187195,240.278580 509.187195,259.606750 
	C504.171417,259.606750 499.442657,259.606750 493.999603,259.606750 
	C493.999603,243.062454 493.999603,226.316696 493.999603,209.080933 
z" data-index="3"></path>
<path fill="#FFFFFD" opacity="1.000000" stroke="none" d="
M583.711426,202.323135 
	C587.499756,207.073425 591.040283,211.561356 594.852051,216.393082 
	C602.644104,206.937302 610.171021,197.679108 617.887695,188.581879 
	C618.962708,187.314606 620.936829,186.203979 622.555359,186.114151 
	C628.031006,185.810318 633.533997,185.998306 640.147949,185.998306 
	C635.671875,191.678101 631.758789,196.790558 627.689636,201.775543 
	C619.782837,211.461761 611.709595,221.013596 603.913208,230.786911 
	C602.710205,232.294998 602.140259,234.671204 602.085876,236.667938 
	C601.878601,244.282608 602.002197,251.906265 602.002197,259.760620 
	C596.976746,259.760620 592.367554,259.760620 586.997986,259.760620 
	C586.997986,251.796127 587.201294,243.707901 586.870605,235.641571 
	C586.774841,233.304459 585.624939,230.652023 584.146912,228.787201 
	C573.029297,214.760132 561.708923,200.893829 549.682251,186.025803 
	C556.869446,186.025803 563.056213,185.971283 569.239136,186.102051 
	C569.930298,186.116669 570.688599,187.105957 571.264282,187.773834 
	C575.352783,192.517075 579.401917,197.294357 583.711426,202.323135 
z" data-index="4"></path>
<path fill="#01B3EA" opacity="1.000000" stroke="none" d="
M164.144958,278.908081 
	C177.510956,275.470276 191.365646,272.089905 206.060150,268.720764 
	C211.284042,268.434998 215.668106,268.138000 220.514313,267.898926 
	C246.572098,267.956818 272.167755,267.956818 298.419830,267.956818 
	C296.730652,264.740936 295.517822,262.431854 294.722534,260.070007 
	C297.064240,260.017242 298.988342,260.017242 301.729736,260.017242 
	C299.300842,255.353668 297.217438,251.353455 295.581543,247.237854 
	C297.230347,247.133102 298.431549,247.143753 299.632751,247.154419 
	C305.441833,257.471680 311.250916,267.788971 317.543793,278.965546 
	C265.956787,278.965546 215.295212,278.965546 164.144958,278.908081 
z" data-index="5"></path>
<path fill="#01B3E8" opacity="1.000000" stroke="none" d="
M111.558014,168.877747 
	C106.899155,183.647415 102.240295,198.417099 97.090286,213.644165 
	C86.303925,231.812653 76.008720,249.523773 65.181694,268.149780 
	C71.389397,268.149780 76.195999,268.149780 81.002594,268.149780 
	C80.176117,271.638794 79.349625,275.127838 78.231773,278.860321 
	C67.799812,279.103790 57.659214,279.103790 46.230518,279.103790 
	C67.444191,242.385559 88.157997,206.532516 109.302338,170.201141 
	C110.341255,169.441132 110.949638,169.159439 111.558014,168.877747 
z" data-index="6" style="opacity: 1;"></path>
<path fill="#019937" opacity="1.000000" stroke="none" d="
M111.730713,168.584076 
	C110.949638,169.159439 110.341255,169.441132 109.427422,169.873093 
	C109.748611,158.451904 110.410469,146.882202 110.994141,135.308578 
	C112.037437,114.621330 112.985947,93.929176 114.084404,73.244926 
	C114.344994,68.337975 115.042267,63.454212 115.661797,57.345940 
	C123.928368,62.705929 131.597763,67.678719 139.548920,72.827469 
	C138.807602,76.577995 137.784500,80.152565 136.215088,83.614670 
	C132.435837,81.376846 129.202866,79.251488 125.087799,76.546234 
	C124.056877,95.487953 123.089264,113.266281 122.121658,131.044617 
	C119.762794,139.808044 117.421104,148.576172 115.036865,157.332687 
	C114.038879,160.997940 112.950615,164.638580 111.730713,168.584076 
z" data-index="7"></path>
<path fill="#FFFFFF" opacity="1.000000" stroke="none" d="
M435.999695,255.835922 
	C435.999603,232.401276 435.999603,209.449112 435.999603,186.249466 
	C441.336304,186.249466 446.271088,186.249466 451.604736,186.249466 
	C451.604736,210.607239 451.604736,234.988632 451.604736,259.994507 
	C447.303436,259.994507 442.853943,260.197449 438.452515,259.827789 
	C437.543121,259.751434 436.812714,257.543762 435.999695,255.835922 
z" data-index="8"></path>
<path fill="#FEFFFE" opacity="1.000000" stroke="none" d="
M313.786865,186.038498 
	C318.023315,186.038498 322.259796,186.038498 327.019104,186.038498 
	C327.019104,188.929108 327.019104,191.503906 326.952026,194.989975 
	C326.963379,201.602966 327.041779,207.304672 327.120178,213.006393 
	C327.088287,218.026077 327.056427,223.045776 327.015564,228.981018 
	C327.057373,233.268799 327.108124,236.641006 327.158875,240.013214 
	C327.158905,246.450821 327.158905,252.888428 327.158905,259.663330 
	C321.743866,259.663330 316.706268,259.663330 310.998047,259.663330 
	C310.998047,254.877808 310.998047,249.983246 311.349609,244.383682 
	C311.454529,240.078125 311.207886,236.477570 310.976959,232.470734 
	C311.050293,230.711853 311.107910,229.359268 311.495850,227.741150 
	C311.819916,224.648727 312.044159,221.797104 311.744476,219.001633 
	C311.425690,216.028030 310.610596,213.107635 310.378052,209.921265 
	C310.814575,205.470108 310.885315,201.261703 311.256989,196.765778 
	C311.671082,194.667786 311.581940,192.814285 311.954865,191.058975 
	C312.321381,189.333603 313.157043,187.707916 313.786865,186.038498 
z" data-index="9"></path>
<path fill="#FFFFFF" opacity="1.000000" stroke="none" d="
M644.894470,277.986450 
	C643.586914,278.962769 642.226013,279.934784 640.864441,279.935730 
	C537.934143,280.006287 435.003845,280.004486 332.073547,279.956085 
	C330.657715,279.955414 329.242218,279.291565 327.826538,278.937256 
	C327.906189,278.385803 327.985809,277.834381 328.065430,277.282928 
	C329.601746,277.188477 331.138092,277.011536 332.674408,277.011353 
	C435.271637,276.998352 537.868835,276.997406 640.466064,277.021576 
	C641.924377,277.021912 643.382568,277.352448 644.894470,277.986450 
z" data-index="10"></path>
<path fill="#02B3E7" opacity="1.000000" stroke="none" d="
M225.947296,120.783127 
	C218.714386,113.806198 211.411407,106.538277 204.308792,99.079552 
	C200.578537,95.162277 197.199081,90.910942 193.433228,86.209381 
	C192.726761,85.125397 192.248322,84.642494 191.769867,84.159599 
	C191.769867,84.159599 191.870926,84.194710 191.886520,83.842896 
	C188.761612,77.888077 185.621124,72.285072 182.222595,66.221710 
	C180.723267,68.348305 179.787033,69.676239 178.850800,71.004173 
	C176.255890,68.552597 173.660980,66.101028 170.948868,63.324207 
	C174.358871,57.031857 177.886078,51.064747 181.978500,44.141426 
	C183.764420,47.198154 185.197647,49.639126 186.619492,52.086708 
	C199.663742,74.541374 212.706909,96.996658 225.738129,119.458885 
	C225.894821,119.728981 225.889893,120.092834 225.947296,120.783127 
z" data-index="11"></path>
<path fill="#029A38" opacity="1.000000" stroke="none" d="
M313.508423,185.863098 
	C313.157043,187.707916 312.321381,189.333603 311.954865,191.058975 
	C311.581940,192.814285 311.671082,194.667786 310.952576,196.608917 
	C304.432770,192.855270 298.597321,188.842590 292.574585,185.134064 
	C288.857788,182.845444 284.855560,181.020416 280.981476,178.987259 
	C280.981476,178.987259 281.014130,178.985977 280.987793,178.664948 
	C280.247894,177.879517 279.534302,177.415115 278.820709,176.950714 
	C268.438232,166.259293 258.055725,155.567841 247.714111,144.529694 
	C249.542175,144.945816 251.481369,145.472183 253.092880,146.508240 
	C268.165039,156.198288 283.181000,165.975723 298.638580,176.223709 
	C300.397156,177.226379 301.730347,177.733185 303.063568,178.239990 
	C306.452393,180.722565 309.841187,183.205139 313.508423,185.863098 
z" data-index="12"></path>
<path fill="#FFFFFF" opacity="1.000000" stroke="none" d="
M303.515106,178.136505 
	C301.730347,177.733185 300.397156,177.226379 298.932495,176.383179 
	C412.893524,176.031097 526.985962,176.014374 641.078369,176.012863 
	C642.337219,176.012848 643.596130,176.211212 644.854980,176.316956 
	C644.842896,176.888977 644.830811,177.460983 644.818726,178.033005 
	C531.201355,178.033005 417.584015,178.033005 303.515106,178.136505 
z" data-index="13"></path>
<path fill="#FEE007" opacity="1.000000" stroke="none" d="
M310.961243,232.877014 
	C311.207886,236.477570 311.454529,240.078125 311.351868,243.927185 
	C307.478180,245.090820 303.953827,246.005936 300.031128,247.037720 
	C298.431549,247.143753 297.230347,247.133102 295.362915,247.009186 
	C293.431671,243.234680 292.166656,239.573395 291.269775,236.043793 
	C292.699341,236.326065 293.825958,236.784546 294.811462,236.576080 
	C300.213806,235.433334 305.581604,234.127090 310.961243,232.877014 
z" data-index="14"></path>
<path fill="#FFFFFD" opacity="1.000000" stroke="none" d="
M596.532959,160.284454 
	C598.437500,160.996552 600.735352,161.845215 603.056763,161.915268 
	C606.424255,162.016922 609.097107,162.503601 608.988953,166.666504 
	C608.889709,170.489639 606.386780,171.133224 603.218628,171.023682 
	C600.233704,170.920486 597.238342,171.082535 594.257080,170.935745 
	C593.506409,170.898758 592.791992,170.126694 592.060913,169.692459 
	C592.829285,169.129547 593.574524,168.121887 594.369934,168.080612 
	C597.825562,167.901291 601.295776,168.003677 605.552063,168.003677 
	C603.138306,163.313690 599.399719,165.181732 596.618103,165.128464 
	C593.042725,165.060013 591.784180,163.384964 592.108032,160.324814 
	C592.234619,159.129303 593.390564,157.204300 594.291382,157.072510 
	C598.470581,156.461151 602.723694,156.269608 606.953674,156.222733 
	C607.380737,156.218033 607.829773,158.196091 608.608398,160.073059 
	C604.152893,160.073059 600.544800,160.073059 596.532959,160.284454 
z" data-index="15"></path>
<path fill="#FFFFFD" opacity="1.000000" stroke="none" d="
M570.811890,155.997894 
	C578.428101,156.154190 580.530090,158.403244 580.001038,165.326218 
	C579.733582,168.824738 577.828613,170.796097 574.362732,170.964233 
	C571.075806,171.123657 567.775085,170.998520 564.245728,170.998520 
	C564.245728,165.995758 564.245728,161.385559 564.245728,155.997894 
	C566.203491,155.997894 568.279236,155.997894 570.811890,155.997894 
M567.104919,167.179413 
	C568.967346,167.442917 570.845947,168.002457 572.688416,167.901520 
	C575.550293,167.744720 576.785278,165.683212 575.855652,163.191162 
	C575.357910,161.856735 573.595032,160.656952 572.136169,160.115128 
	C570.735535,159.594955 568.990295,160.002747 567.015686,160.002747 
	C567.015686,162.400650 567.015686,164.333588 567.104919,167.179413 
z" data-index="16"></path>
<path fill="#FFFFFD" opacity="1.000000" stroke="none" d="
M620.557739,167.975677 
	C622.654846,166.841095 624.339661,165.723297 626.779602,164.104553 
	C626.779602,166.188889 627.127441,167.428146 626.713623,168.310120 
	C625.527466,170.838562 617.290955,172.932465 614.009277,170.603058 
	C611.840942,169.063858 610.182251,165.202972 610.280029,162.452072 
	C610.425354,158.362274 613.675354,155.669830 618.049255,156.111389 
	C620.798889,156.388992 623.551697,157.541107 626.048157,158.804611 
	C626.699463,159.134232 626.396973,161.348236 626.532471,162.696777 
	C625.568604,162.211609 624.651123,161.481918 623.631897,161.288956 
	C620.998169,160.790298 618.292847,160.193878 615.677185,160.402481 
	C615.005005,160.456085 613.677551,164.301117 614.170776,164.755722 
	C615.785217,166.243759 618.099976,166.972046 620.557739,167.975677 
z" data-index="17"></path>
<path fill="#029A38" opacity="1.000000" stroke="none" d="
M327.421143,212.851196 
	C327.041779,207.304672 326.963379,201.602966 327.003174,195.444244 
	C329.830719,196.553589 332.540009,198.119904 335.541992,199.843765 
	C335.674561,202.733261 335.514526,205.465210 335.200958,208.552094 
	C332.605652,210.169998 330.163879,211.432999 327.421143,212.851196 
z" data-index="18"></path>
<path fill="#FFFFFD" opacity="1.000000" stroke="none" d="
M591.002014,161.811508 
	C590.603271,168.273697 587.264526,171.856247 582.799988,170.953873 
	C582.161621,170.824844 581.255188,170.252823 581.153442,169.748566 
	C581.056641,169.268448 581.797668,168.151611 582.261169,168.097870 
	C587.530579,167.487167 587.168579,163.722244 587.013123,159.979843 
	C586.914429,157.603394 586.668823,154.923889 591.002014,156.617798 
	C591.002014,158.117508 591.002014,159.745712 591.002014,161.811508 
z" data-index="19"></path>
<path fill="#FFFFFD" opacity="1.000000" stroke="none" d="
M640.708130,166.000793 
	C637.445557,166.001373 634.618958,166.245850 631.871338,165.886688 
	C630.678345,165.730743 629.647705,164.332718 628.543335,163.498840 
	C628.807129,162.999268 629.070862,162.499710 629.334656,162.000137 
	C633.244995,162.000137 637.160828,161.888123 641.061951,162.077820 
	C642.054199,162.126068 642.999817,163.132812 643.966858,163.699188 
	C643.036682,164.466064 642.106445,165.232910 640.708130,166.000793 
z" data-index="20"></path>
<path fill="#FFFFFD" opacity="1.000000" stroke="none" d="
M636.014221,160.002106 
	C633.318970,159.045303 628.765442,162.465881 629.050598,156.299835 
	C633.842590,156.299835 638.537354,156.299835 645.125122,156.299835 
	C643.329712,158.089417 642.524048,159.511597 641.379517,159.879318 
	C639.889343,160.358139 638.130310,160.000061 636.014221,160.002106 
z" data-index="21"></path>
<path fill="#FCDE02" opacity="1.000000" stroke="none" d="
M327.540283,240.008026 
	C327.108124,236.641006 327.057373,233.268799 327.083466,229.442810 
	C329.740479,231.825394 332.320618,234.661758 335.383545,238.028854 
	C332.447540,238.805557 330.184601,239.404205 327.540283,240.008026 
z" data-index="22"></path>
<path fill="#FFFFFF" opacity="1.000000" stroke="none" d="
M640.735352,170.999680 
	C637.288757,170.998306 634.302551,171.113373 631.337158,170.916061 
	C630.547302,170.863495 629.821106,169.853638 629.065674,169.283295 
	C629.801025,168.857635 630.523560,168.092758 631.273987,168.064316 
	C634.743774,167.932831 638.224060,167.933746 641.694031,168.062668 
	C642.453003,168.090881 643.185242,168.837311 643.929810,169.252991 
	C643.021057,169.835037 642.112305,170.417053 640.735352,170.999680 
z" data-index="23"></path>
<path fill="#02B3E7" opacity="1.000000" stroke="none" d="
M226.863129,122.353638 
	C226.437363,122.275101 225.977463,121.914482 225.670425,121.291718 
	C226.158524,121.376907 226.493759,121.724236 226.863129,122.353638 
z" data-index="24"></path>
<path fill="#029A38" opacity="1.000000" stroke="none" d="
M246.835236,142.967072 
	C246.417908,143.045700 245.883881,142.866867 245.286682,142.357956 
	C245.721863,142.255127 246.220200,142.482376 246.835236,142.967072 
z" data-index="25"></path>
<path fill="#029A38" opacity="1.000000" stroke="none" d="
M247.842987,143.891205 
	C247.532806,144.014450 247.105728,143.897766 246.773941,143.410431 
	C247.154861,143.243591 247.440475,143.447433 247.842987,143.891205 
z" data-index="26"></path>
<path fill="#46714C" opacity="1.000000" stroke="none" d="
M273.993378,241.827744 
	C261.951630,244.761765 249.940674,247.829941 237.861771,250.602081 
	C212.202682,256.490906 186.508224,262.225708 159.950928,268.025208 
	C144.423935,268.026428 129.774261,268.026154 115.088394,267.568481 
	C115.383499,258.512970 115.654060,249.911926 116.058319,241.317184 
	C117.005714,221.174850 118.017151,201.035553 119.002670,180.895020 
	C120.275238,176.567856 121.547806,172.240707 123.207001,167.371277 
	C130.721436,154.597824 137.808960,142.342941 144.989761,130.142944 
	C150.742188,120.369682 156.607849,110.663086 162.732040,101.015701 
	C169.293121,105.146370 175.539902,109.196823 181.798859,113.228371 
	C196.270645,122.550034 210.748322,131.862534 225.387985,141.450104 
	C234.029922,156.425110 242.507492,171.128769 250.522064,185.902802 
	C242.168564,185.973190 234.278091,185.973190 226.349670,185.973190 
	C226.349670,191.647446 226.349670,196.669357 226.349670,202.087128 
	C238.107162,202.087128 249.513336,202.087128 261.007874,202.426361 
	C264.394775,208.786926 267.693329,214.808273 270.528625,220.901199 
	C255.506943,220.972794 240.948563,220.972794 226.272614,220.972794 
	C226.272614,226.223572 226.272614,230.937119 226.272614,235.780533 
	C240.127151,235.780533 253.708694,235.941132 267.282745,235.691940 
	C271.926056,235.606705 274.110687,237.200760 273.993378,241.827744 
M183.017059,203.759537 
	C184.466324,203.173492 185.908112,202.102310 187.366074,202.079788 
	C197.135361,201.929001 206.908081,202.001389 216.671066,202.001389 
	C216.671066,196.360672 216.671066,191.301086 216.671066,186.367798 
	C188.947495,186.367798 161.555588,186.367798 134.279999,186.367798 
	C134.279999,191.677368 134.279999,196.613861 134.279999,202.083221 
	C145.276352,202.083221 156.003494,202.083221 167.210480,202.083221 
	C167.210480,221.685959 167.210480,240.749283 167.210480,259.604279 
	C172.777924,259.604279 177.842896,259.604279 183.003433,259.604279 
	C183.003433,241.044632 183.003433,222.881729 183.017059,203.759537 
z" data-index="27" style="opacity: 1;"></path>
<path fill="#FEFEFE" opacity="1.000000" stroke="none" d="
M260.919525,202.087128 
	C249.513336,202.087128 238.107162,202.087128 226.349670,202.087128 
	C226.349670,196.669357 226.349670,191.647446 226.349670,185.973190 
	C234.278091,185.973190 242.168564,185.973190 250.905792,186.070190 
	C255.879608,186.097229 260.006683,186.027283 264.561005,185.974442 
	C266.989624,185.938248 268.991058,185.884933 270.992462,185.831604 
	C276.725647,186.981689 282.458832,188.131775 288.592102,189.151733 
	C288.992157,189.021622 288.914642,189.012314 288.821045,189.301178 
	C289.097137,189.735001 289.466827,189.879944 290.001129,190.334900 
	C293.158020,193.756104 296.150238,196.867294 299.110077,200.288910 
	C299.377380,200.760437 299.677063,200.921539 299.980774,201.047958 
	C299.984772,201.013260 299.914917,201.012482 299.822205,201.437698 
	C300.156342,206.809143 300.583160,211.755386 300.770111,216.987076 
	C298.401672,221.175888 296.273102,225.079239 293.995728,229.306244 
	C292.961609,231.769211 287.572754,231.797134 290.901672,235.912125 
	C292.166656,239.573395 293.431671,243.234680 294.915344,247.124603 
	C297.217438,251.353455 299.300842,255.353668 301.729736,260.017242 
	C298.988342,260.017242 297.064240,260.017242 294.249084,260.019043 
	C285.660706,261.708740 281.606354,257.925323 279.695007,250.923416 
	C278.024689,247.960617 276.354370,244.997818 274.338684,241.931381 
	C274.110687,237.200760 271.926056,235.606705 267.282745,235.691940 
	C253.708694,235.941132 240.127151,235.780533 226.272614,235.780533 
	C226.272614,230.937119 226.272614,226.223572 226.272614,220.972794 
	C240.948563,220.972794 255.506943,220.972794 270.960693,220.971481 
	C275.743469,220.826828 279.967224,221.928986 282.994354,217.673172 
	C286.641144,214.022430 286.839569,210.472900 284.225586,206.463715 
	C281.658539,202.526489 278.003967,201.656921 273.286011,201.969757 
	C268.880646,201.906342 264.900085,201.996735 260.919525,202.087128 
z" data-index="28"></path>
<path fill="#02B3E7" opacity="1.000000" stroke="none" d="
M162.423264,100.926903 
	C156.607849,110.663086 150.742188,120.369682 144.989761,130.142944 
	C137.808960,142.342941 130.721436,154.597824 123.288002,167.003571 
	C127.795212,151.391159 132.608063,135.604218 137.952820,119.382156 
	C138.701065,117.986618 138.917358,117.026184 139.133667,116.065750 
	C139.133667,116.065750 139.040436,116.027840 139.431976,116.127357 
	C141.303955,113.898674 142.880157,111.625175 144.247559,109.232361 
	C149.027985,100.867027 153.736359,92.460503 158.695221,83.844032 
	C160.995132,80.077568 163.071945,76.536705 165.148758,72.995842 
	C167.755234,75.718994 170.361725,78.442146 172.690826,81.702423 
	C170.901520,85.151573 169.389587,88.063599 167.568878,91.112061 
	C165.647842,94.474632 164.035553,97.700768 162.423264,100.926903 
z" data-index="29"></path>
<path fill="#029A38" opacity="1.000000" stroke="none" d="
M118.723175,181.146149 
	C118.017151,201.035553 117.005714,221.174850 116.058319,241.317184 
	C115.654060,249.911926 115.383499,258.512970 114.809769,267.886475 
	C111.004044,268.448944 107.440742,268.236023 103.915604,267.585510 
	C104.594467,253.417236 105.235168,239.686554 105.875870,225.955872 
	C109.313812,213.452454 112.736679,200.944855 116.202934,188.449295 
	C116.861794,186.074188 117.692345,183.746719 118.723175,181.146149 
z" data-index="30"></path>
<path fill="#019938" opacity="1.000000" stroke="none" d="
M162.732040,101.015701 
	C164.035553,97.700768 165.647842,94.474632 167.792267,91.374123 
	C173.752869,95.027733 179.134995,98.629807 184.622864,102.062828 
	C190.086014,105.480377 195.655334,108.728195 201.178101,112.050430 
	C208.642838,119.738022 216.107574,127.425613 223.508881,135.600464 
	C224.038177,137.784729 224.630890,139.481735 225.223618,141.178741 
	C210.748322,131.862534 196.270645,122.550034 181.798859,113.228371 
	C175.539902,109.196823 169.293121,105.146370 162.732040,101.015701 
z" data-index="31"></path>
<path fill="#47704C" opacity="1.000000" stroke="none" d="
M279.354370,251.178772 
	C281.606354,257.925323 285.660706,261.708740 293.831543,260.071808 
	C295.517822,262.431854 296.730652,264.740936 298.419830,267.956818 
	C272.167755,267.956818 246.572098,267.956818 220.729324,267.663757 
	C222.319016,266.291687 224.155807,265.212616 225.992615,264.133575 
	C243.666336,259.900421 261.340057,255.667267 279.354370,251.178772 
z" data-index="32"></path>
<path fill="#03B3E8" opacity="1.000000" stroke="none" d="
M103.877434,268.023132 
	C107.440742,268.236023 111.004044,268.448944 114.845978,268.343842 
	C129.774261,268.026154 144.423935,268.026428 159.539230,268.086334 
	C153.572983,269.939636 147.213852,272.079102 140.693222,273.450958 
	C129.141754,275.881195 117.492149,277.845032 105.081467,279.830292 
	C99.241356,279.437500 94.203377,279.218445 89.165405,278.999390 
	C90.192116,275.548981 91.218834,272.098572 92.952011,268.334045 
	C97.064796,268.021027 100.471115,268.022095 103.877434,268.023132 
z" data-index="33"></path>
<path fill="#04B3E7" opacity="1.000000" stroke="none" d="
M225.387985,141.450104 
	C224.630890,139.481735 224.038177,137.784729 223.655212,135.881775 
	C229.397186,141.128433 235.099258,146.421570 240.411560,152.080627 
	C245.265411,157.251297 249.697372,162.817993 254.555420,168.799408 
	C255.273148,169.873627 255.750732,170.358627 256.228333,170.843613 
	C256.228333,170.843613 256.131805,170.808517 256.115295,171.158676 
	C258.777100,176.324997 261.455444,181.141174 264.133789,185.957336 
	C260.006683,186.027283 255.879608,186.097229 251.368790,185.999802 
	C242.507492,171.128769 234.029922,156.425110 225.387985,141.450104 
z" data-index="34"></path>
<path fill="#47704C" opacity="1.000000" stroke="none" d="
M81.329727,267.932800 
	C76.195999,268.149780 71.389397,268.149780 65.181694,268.149780 
	C76.008720,249.523773 86.303925,231.812653 96.955193,213.958755 
	C94.700684,222.884857 92.106773,231.958588 89.474831,241.021286 
	C86.888947,249.925323 84.264427,258.818115 81.329727,267.932800 
z" data-index="35"></path>
<path fill="#47704C" opacity="1.000000" stroke="none" d="
M122.433090,130.829224 
	C123.089264,113.266281 124.056877,95.487953 125.087799,76.546234 
	C129.202866,79.251488 132.435837,81.376846 135.886566,83.766403 
	C132.011093,98.151230 127.914185,112.270790 123.830429,126.394150 
	C123.427170,127.788780 123.104553,129.206726 122.433090,130.829224 
z" data-index="36"></path>
<path fill="#47704C" opacity="1.000000" stroke="none" d="
M103.915604,267.585510 
	C100.471115,268.022095 97.064796,268.021027 93.173828,268.069183 
	C96.880096,254.202332 101.071022,240.286240 105.568909,226.163025 
	C105.235168,239.686554 104.594467,253.417236 103.915604,267.585510 
z" data-index="37"></path>
<path fill="#47704C" opacity="1.000000" stroke="none" d="
M299.142487,199.978470 
	C296.150238,196.867294 293.158020,193.756104 290.007446,190.060577 
	C289.537659,189.321579 289.226135,189.166946 288.914642,189.012314 
	C288.914642,189.012314 288.992157,189.021622 288.989136,189.060425 
	C286.388885,185.946976 283.791626,182.794708 281.087952,179.314850 
	C284.855560,181.020416 288.857788,182.845444 292.574585,185.134064 
	C298.597321,188.842590 304.432770,192.855270 310.651672,196.896423 
	C310.885315,201.261703 310.814575,205.470108 310.072174,209.770050 
	C306.238647,206.911880 303.076782,203.962189 299.914917,201.012482 
	C299.914917,201.012482 299.984772,201.013260 299.961853,200.791138 
	C299.673431,200.372162 299.407959,200.175323 299.142487,199.978470 
z" data-index="38"></path>
<path fill="#47704C" opacity="1.000000" stroke="none" d="
M201.023224,111.729950 
	C195.655334,108.728195 190.086014,105.480377 184.622864,102.062828 
	C179.134995,98.629807 173.752869,95.027733 168.101028,91.237686 
	C169.389587,88.063599 170.901520,85.151573 172.708954,82.045067 
	C182.292389,91.703552 191.580368,101.556511 201.023224,111.729950 
z" data-index="39"></path>
<path fill="#278443" opacity="1.000000" stroke="none" d="
M158.472107,84.069633 
	C153.736359,92.460503 149.027985,100.867027 144.247559,109.232361 
	C142.880157,111.625175 141.303955,113.898674 139.463409,116.166656 
	C140.085205,112.045105 140.943588,107.949013 142.074814,103.929710 
	C144.402542,95.659195 146.876129,87.429749 149.805054,79.323669 
	C153.037643,80.999176 155.754883,82.534409 158.472107,84.069633 
z" data-index="40"></path>
<path fill="#47704C" opacity="1.000000" stroke="none" d="
M158.695221,83.844032 
	C155.754883,82.534409 153.037643,80.999176 150.143768,79.165192 
	C151.395676,73.431145 152.824219,67.995872 154.445724,61.826405 
	C158.158890,65.596146 161.501755,68.989944 164.996689,72.689789 
	C163.071945,76.536705 160.995132,80.077568 158.695221,83.844032 
z" data-index="41"></path>
<path fill="#47704C" opacity="1.000000" stroke="none" d="
M89.099457,279.393555 
	C94.203377,279.218445 99.241356,279.437500 104.642998,279.872528 
	C99.562973,281.976990 94.119278,283.865448 87.690224,286.095764 
	C88.377090,282.870209 88.705299,281.328979 89.099457,279.393555 
z" data-index="42"></path>
<path fill="#47704C" opacity="1.000000" stroke="none" d="
M264.561005,185.974457 
	C261.455444,181.141174 258.777100,176.324997 256.163696,171.141556 
	C261.057281,175.596436 265.885895,180.418594 270.853516,185.536194 
	C268.991058,185.884933 266.989624,185.938248 264.561005,185.974457 
z" data-index="43"></path>
<path fill="#47704C" opacity="1.000000" stroke="none" d="
M179.003784,71.311119 
	C179.787033,69.676239 180.723267,68.348305 182.222595,66.221710 
	C185.621124,72.285072 188.761612,77.888077 191.835403,83.858658 
	C187.564713,80.023514 183.360733,75.820786 179.003784,71.311119 
z" data-index="44"></path>
<path fill="#099D3E" opacity="1.000000" stroke="none" d="
M225.581070,264.061279 
	C224.155807,265.212616 222.319016,266.291687 220.267181,267.605865 
	C215.668106,268.138000 211.284042,268.434998 206.465485,268.608185 
	C212.410507,266.985931 218.790024,265.487488 225.581070,264.061279 
z" data-index="45"></path>
<path fill="#278443" opacity="1.000000" stroke="none" d="
M138.775497,116.180634 
	C138.917358,117.026184 138.701065,117.986618 138.101990,119.075546 
	C137.951935,118.234528 138.184631,117.265022 138.775497,116.180634 
z" data-index="46"></path>
<path fill="#47704C" opacity="1.000000" stroke="none" d="
M278.952606,177.237396 
	C279.534302,177.415115 280.247894,177.879517 280.987732,178.681290 
	C280.370789,178.520462 279.727661,178.022263 278.952606,177.237396 
z" data-index="47"></path>
<path fill="#47704C" opacity="1.000000" stroke="none" d="
M191.708694,84.520653 
	C192.248322,84.642494 192.726761,85.125397 193.215179,85.990005 
	C192.699280,85.875046 192.173401,85.378380 191.708694,84.520653 
z" data-index="48"></path>
<path fill="#47704C" opacity="1.000000" stroke="none" d="
M256.291687,170.482269 
	C255.750732,170.358627 255.273148,169.873627 254.786316,169.007111 
	C255.303055,169.124039 255.829041,169.622498 256.291687,170.482269 
z" data-index="49"></path>
<path fill="#FEE007" opacity="1.000000" stroke="none" d="
M299.822205,201.437714 
	C303.076782,203.962189 306.238647,206.911880 309.706360,210.012787 
	C310.610596,213.107635 311.425690,216.028030 311.744476,219.001633 
	C312.044159,221.797104 311.819916,224.648727 311.346558,227.437897 
	C309.467041,225.922913 308.067230,224.445663 306.590424,222.661469 
	C304.678986,220.470215 302.844482,218.585922 301.010010,216.701614 
	C300.583160,211.755386 300.156342,206.809143 299.822205,201.437714 
z" data-index="50"></path>
<path fill="#47704C" opacity="1.000000" stroke="none" d="
M306.667389,222.968414 
	C308.067230,224.445663 309.467041,225.922913 311.016174,227.703400 
	C311.107910,229.359268 311.050293,230.711853 310.976959,232.470734 
	C305.581604,234.127090 300.213806,235.433334 294.811462,236.576080 
	C293.825958,236.784546 292.699341,236.326065 291.269775,236.043793 
	C287.572754,231.797134 292.961609,231.769211 294.360260,229.302856 
	C298.804871,226.973328 302.736115,224.970856 306.667389,222.968414 
z" data-index="51"></path>
<path fill="#47704C" opacity="1.000000" stroke="none" d="
M567.060303,166.722961 
	C567.015686,164.333588 567.015686,162.400650 567.015686,160.002747 
	C568.990295,160.002747 570.735535,159.594955 572.136169,160.115128 
	C573.595032,160.656952 575.357910,161.856735 575.855652,163.191162 
	C576.785278,165.683212 575.550293,167.744720 572.688416,167.901520 
	C570.845947,168.002457 568.967346,167.442917 567.060303,166.722961 
z" data-index="52"></path>
<path fill="#FFFFFF" opacity="1.000000" stroke="none" d="
M183.010254,204.239166 
	C183.003433,222.881729 183.003433,241.044632 183.003433,259.604279 
	C177.842896,259.604279 172.777924,259.604279 167.210480,259.604279 
	C167.210480,240.749283 167.210480,221.685959 167.210480,202.083221 
	C156.003494,202.083221 145.276352,202.083221 134.279999,202.083221 
	C134.279999,196.613861 134.279999,191.677368 134.279999,186.367798 
	C161.555588,186.367798 188.947495,186.367798 216.671066,186.367798 
	C216.671066,191.301086 216.671066,196.360672 216.671066,202.001389 
	C206.908081,202.001389 197.135361,201.929001 187.366074,202.079788 
	C185.908112,202.102310 184.466324,203.173492 183.010254,204.239166 
z" data-index="53" style="opacity: 1;"></path>
<path fill="#01B3E8" opacity="1.000000" stroke="none" d="
M282.833923,218.005722 
	C279.967224,221.928986 275.743469,220.826828 271.423950,220.899887 
	C267.693329,214.808273 264.394775,208.786926 261.007874,202.426361 
	C264.900085,201.996735 268.880646,201.906342 273.371368,202.320099 
	C276.865662,207.884735 279.849792,212.945236 282.833923,218.005722 
z" data-index="54"></path>
<path fill="#47704C" opacity="1.000000" stroke="none" d="
M282.994354,217.673172 
	C279.849792,212.945236 276.865662,207.884735 273.796173,202.473923 
	C278.003967,201.656921 281.658539,202.526489 284.225586,206.463715 
	C286.839569,210.472900 286.641144,214.022430 282.994354,217.673172 
z" data-index="55"></path>
<path fill="#099D3E" opacity="1.000000" stroke="none" d="
M306.590424,222.661469 
	C302.736115,224.970856 298.804871,226.973328 294.509094,228.979187 
	C296.273102,225.079239 298.401672,221.175888 300.770111,216.987076 
	C302.844482,218.585922 304.678986,220.470215 306.590424,222.661469 
z" data-index="56"></path>
<path fill="#FEE007" opacity="1.000000" stroke="none" d="
M299.110077,200.288910 
	C299.407959,200.175323 299.673431,200.372162 299.957825,200.825836 
	C299.677063,200.921539 299.377380,200.760437 299.110077,200.288910 
z" data-index="57"></path>
<path fill="#FCDE02" opacity="1.000000" stroke="none" d="
M288.821045,189.301178 
	C289.226135,189.166946 289.537659,189.321579 289.842834,189.750549 
	C289.466827,189.879944 289.097137,189.735001 288.821045,189.301178 
z" data-index="58"></path>
</svg>